<svg xmlns="http://www.w3.org/2000/svg" viewBox="0 0 24 24"><path fill="white" d="M12 2.2c3.2 0 3.6 0 4.9.1 1.2.1 1.9.3 2.3.5.6.2 1 .6 1.3 1.2.2.5.4 1.1.5 2.3.1 1.3.1 1.7.1 4.9s0 3.6-.1 4.9c-.1 1.2-.3 1.9-.5 2.3-.3.6-.7 1-1.3 1.3-.4.2-1.1.4-2.3.5-1.3.1-1.7.1-4.9.1s-3.6 0-4.9-.1c-1.2-.1-1.9-.3-2.3-.5-.6-.3-1-.7-1.3-1.3-.2-.4-.4-1.1-.5-2.3-.1-1.3-.1-1.7-.1-4.9s0-3.6.1-4.9c.1-1.2.3-1.9.5-2.3.2-.6.7-1 1.3-1.2.4-.2 1.1-.4 2.3-.5 1.3-.1 1.7-.1 4.9-.1zm0-2.2c-3.3 0-3.7 0-5 .1-1.3.1-2.3.3-3.2.6-1 .4-1.8 1-2.5 1.8s-1.4 1.6-1.8 2.5c-.3.9-.5 1.9-.6 3.2-.1 1.3-.1 1.7-.1 5s0 3.7.1 5c.1 1.3.3 2.3.6 3.2.4 1 1 1.8 1.8 2.5s1.6 1.4 2.5 1.8c.9.3 1.9.5 3.2.6 1.3.1 1.7.1 5 .1s3.7 0 5-.1c1.3-.1 2.3-.3 3.2-.6 1-.4 1.8-1 2.5-1.8s1.4-1.6 1.8-2.5c.3-.9.5-1.9.6-3.2.1-1.3.1-1.7.1-5s0-3.7-.1-5c-.1-1.3-.3-2.3-.6-3.2-.4-1-1-1.8-1.8-2.5s-1.6-1.4-2.5-1.8c-.9-.3-1.9-.5-3.2-.6-1.3-.1-1.7-.1-5-.1zM12 5.8a6.2 6.2 0 1 0 0 12.4 6.2 6.2 0 0 0 0-12.4zm0 10.3a4.1 4.1 0 1 1 0-8.2 4.1 4.1 0 0 1 0 8.2zm6.4-11.5a1.5 1.5 0 1 0 0 3 1.5 1.5 0 0 0 0-3z"/></svg>